<svg xmlns="http://www.w3.org/2000/svg" version="1.1" xmlns:xlink="http://www.w3.org/1999/xlink" width="1000" height="1000"><g clip-path="url(#SvgjsClipPath1186)"><rect width="1000" height="1000" fill="#000000"></rect><g transform="matrix(22.22222222222222,0,0,22.22222222222222,100,277.77777777777777)"><svg xmlns="http://www.w3.org/2000/svg" version="1.1" xmlns:xlink="http://www.w3.org/1999/xlink" width="36" height="20"><svg width="36" height="20" viewBox="0 0 36 20" fill="none" xmlns="http://www.w3.org/2000/svg">
<path d="M9.51679 20C7.81213 20 6.27793 19.6694 4.91419 19.0083C3.55046 18.3287 2.47383 17.2635 1.6843 15.8127C0.894765 14.3618 0.5 12.4702 0.5 10.1377V9.58678C0.5 7.91552 0.73327 6.48301 1.19981 5.28926C1.66635 4.07714 2.30336 3.0854 3.11083 2.31405C3.93625 1.52433 4.8783 0.945822 5.93699 0.578513C7.01362 0.192838 8.16203 0 9.38221 0C10.4588 0 11.4637 0.128558 12.3968 0.385675C13.3299 0.642791 14.1553 1.04683 14.873 1.5978C15.6087 2.1304 16.2099 2.8191 16.6764 3.66391C17.1609 4.50872 17.4659 5.51882 17.5915 6.69421H12.5583C12.4147 5.99633 12.1635 5.46373 11.8046 5.09642C11.4637 4.72911 11.0779 4.48118 10.6473 4.35262C10.2345 4.20569 9.81287 4.13223 9.38221 4.13223C8.62857 4.13223 7.95568 4.3067 7.36353 4.65565C6.78932 4.98623 6.33176 5.54637 5.99082 6.33609C5.66783 7.1258 5.50634 8.20937 5.50634 9.58678V10.1377C5.50634 11.1662 5.60503 12.0478 5.80241 12.7824C5.99979 13.4986 6.26895 14.0863 6.60989 14.5455C6.96876 15.0046 7.39044 15.3444 7.87493 15.5647C8.37736 15.7668 8.92465 15.8678 9.51679 15.8678C10.1807 15.8678 10.8088 15.7576 11.4009 15.5372C11.993 15.2984 12.4865 14.9311 12.8813 14.4353C13.276 13.9394 13.4824 13.3058 13.5003 12.5344H10.0551V9.39394H17.9953V10.6887C17.9953 12.3416 17.7799 13.7557 17.3493 14.9311C16.9366 16.1065 16.3534 17.0707 15.5998 17.8237C14.8461 18.5767 13.9489 19.1276 12.9082 19.4766C11.8854 19.8255 10.7549 20 9.51679 20Z" fill="white"></path>
<path d="M27.5598 20C25.8013 20 24.3389 19.7612 23.1726 19.2837C22.0062 18.8062 21.127 18.1359 20.5348 17.2727C19.9606 16.3912 19.6556 15.3444 19.6197 14.1322H24.4645C24.6081 14.8301 24.9221 15.3444 25.4066 15.6749C25.8911 15.9871 26.6088 16.1432 27.5598 16.1432C28.5826 16.1432 29.3453 15.9963 29.8477 15.7025C30.3681 15.4086 30.6282 14.9587 30.6282 14.3526C30.6282 13.8567 30.4578 13.4619 30.1168 13.168C29.7938 12.8742 29.2914 12.6263 28.6096 12.4242C27.9277 12.2222 27.1112 12.011 26.1602 11.7906C24.9221 11.4968 23.8544 11.1203 22.9572 10.6612C22.06 10.1837 21.3692 9.55005 20.8847 8.76033C20.4002 7.97062 20.158 6.95133 20.158 5.70248C20.158 4.49036 20.4541 3.46189 21.0462 2.61708C21.6563 1.77227 22.5176 1.12948 23.6301 0.688706C24.7427 0.229569 26.0526 0 27.5598 0C29.2107 0 30.5744 0.220386 31.651 0.661158C32.7456 1.10193 33.571 1.73554 34.1273 2.56198C34.7015 3.38843 35.0245 4.39853 35.0963 5.59229H30.2514C30.1438 5.00459 29.8836 4.573 29.4709 4.29752C29.0582 4.00367 28.4211 3.85675 27.5598 3.85675C26.6088 3.85675 25.9449 4.01286 25.5681 4.32507C25.1912 4.63728 25.0028 5.04132 25.0028 5.53719C25.0028 6.21671 25.3438 6.71258 26.0256 7.02479C26.7255 7.33701 27.7303 7.62167 29.0402 7.87879C30.0092 8.08081 30.8884 8.32874 31.678 8.62259C32.4854 8.91644 33.1673 9.29293 33.7236 9.75207C34.2978 10.2112 34.7374 10.7805 35.0424 11.4601C35.3475 12.1212 35.5 12.9385 35.5 13.9118C35.5 15.1791 35.186 16.2718 34.5579 17.1901C33.9299 18.09 33.0237 18.7879 31.8395 19.2837C30.6552 19.7612 29.2286 20 27.5598 20Z" fill="white"></path>
</svg></svg></g></g><defs><clipPath id="SvgjsClipPath1186"><rect width="1000" height="1000" x="0" y="0" rx="250" ry="250"></rect></clipPath></defs></svg>