<svg xmlns="http://www.w3.org/2000/svg" width="16" height="20" viewBox="0 0 16 20" fill="none">
  <path fill-rule="evenodd" clip-rule="evenodd" d="M3.62104 8.59699L3.30504 5.75799C3.26496 5.39409 3.26496 5.02689 3.30504 4.66299L3.32804 4.45799C3.45629 3.30887 4.00362 2.24735 4.86537 1.47643C5.72711 0.705511 6.84279 0.279297 7.99904 0.279297C9.1553 0.279297 10.271 0.705511 11.1327 1.47643C11.9945 2.24735 12.5418 3.30887 12.67 4.45799L12.693 4.66299C12.733 5.02766 12.733 5.39266 12.693 5.75799L12.377 8.59799L13.064 8.65199C13.5902 8.69384 14.0871 8.91084 14.4754 9.26831C14.8637 9.62579 15.1209 10.1031 15.206 10.624C15.572 12.8598 15.572 15.1402 15.206 17.376C15.1209 17.8969 14.8637 18.3742 14.4754 18.7317C14.0871 19.0891 13.5902 19.3061 13.064 19.348L11.568 19.468C9.19205 19.658 6.80604 19.658 4.43004 19.468L2.93404 19.348C2.40792 19.3061 1.911 19.0891 1.52271 18.7317C1.13441 18.3742 0.877155 17.8969 0.792045 17.376C0.426089 15.1402 0.426089 12.8598 0.792045 10.624C0.877155 10.1031 1.13441 9.62579 1.52271 9.26831C1.911 8.91084 2.40792 8.69384 2.93404 8.65199L3.62104 8.59699ZM7.62504 1.79999C8.04412 1.75074 8.4688 1.78485 8.87464 1.90037C9.28048 2.01588 9.65946 2.21053 9.98978 2.47309C10.3201 2.73565 10.5952 3.06095 10.7993 3.43026C11.0034 3.79958 11.1325 4.20561 11.179 4.62499L11.202 4.82999C11.23 5.08399 11.23 5.33866 11.202 5.59399L10.881 8.48399C8.96169 8.36081 7.0364 8.36081 5.11704 8.48399L4.79704 5.59399C4.76917 5.34009 4.76917 5.0839 4.79704 4.82999L4.81904 4.62499C4.89881 3.90635 5.2196 3.23591 5.72915 2.72291C6.2387 2.20991 6.90696 1.8846 7.62504 1.79999ZM11.449 10.029C9.15269 9.84587 6.8454 9.84587 4.54904 10.029L3.05404 10.149C2.86201 10.164 2.68055 10.2429 2.53876 10.3733C2.39697 10.5037 2.30304 10.6779 2.27204 10.868C1.93251 12.9429 1.93251 15.0591 2.27204 17.134C2.30284 17.3243 2.39667 17.4987 2.53849 17.6293C2.6803 17.7598 2.86186 17.839 3.05404 17.854L4.55004 17.974C6.84604 18.157 9.15204 18.157 11.449 17.974L12.945 17.854C13.137 17.8388 13.3184 17.7595 13.46 17.629C13.6016 17.4984 13.6953 17.3241 13.726 17.134C14.0656 15.0591 14.0656 12.9429 13.726 10.868C13.6953 10.6779 13.6016 10.5035 13.46 10.373C13.3184 10.2424 13.137 10.1632 12.945 10.148L11.449 10.029Z" fill="black"/>
</svg>