<svg xmlns="http://www.w3.org/2000/svg" width="24" height="24" viewBox="0 0 24 24" fill="none">
  <path d="M12.75 7C12.75 6.80109 12.671 6.61032 12.5303 6.46967C12.3897 6.32902 12.1989 6.25 12 6.25C11.8011 6.25 11.6103 6.32902 11.4697 6.46967C11.329 6.61032 11.25 6.80109 11.25 7V12C11.2499 12.1272 11.2822 12.2522 11.3438 12.3635C11.4054 12.4747 11.4942 12.5685 11.602 12.636L14.602 14.511C14.7707 14.6166 14.9744 14.6508 15.1683 14.6061C15.2643 14.584 15.355 14.5433 15.4353 14.4861C15.5155 14.4289 15.5837 14.3565 15.636 14.273C15.6883 14.1895 15.7236 14.0965 15.7399 13.9993C15.7562 13.9022 15.7532 13.8027 15.7311 13.7067C15.709 13.6107 15.6683 13.52 15.6111 13.4397C15.5539 13.3595 15.4815 13.2913 15.398 13.239L12.75 11.584V7Z" fill="black"/>
  <path fill-rule="evenodd" clip-rule="evenodd" d="M12 3.25C9.67936 3.25 7.45376 4.17187 5.81282 5.81282C4.17187 7.45376 3.25 9.67936 3.25 12C3.25 14.3206 4.17187 16.5462 5.81282 18.1872C7.45376 19.8281 9.67936 20.75 12 20.75C14.3206 20.75 16.5462 19.8281 18.1872 18.1872C19.8281 16.5462 20.75 14.3206 20.75 12C20.75 9.67936 19.8281 7.45376 18.1872 5.81282C16.5462 4.17187 14.3206 3.25 12 3.25ZM4.75 12C4.75 11.0479 4.93753 10.1052 5.30187 9.22554C5.66622 8.34593 6.20025 7.5467 6.87348 6.87348C7.5467 6.20025 8.34593 5.66622 9.22554 5.30187C10.1052 4.93753 11.0479 4.75 12 4.75C12.9521 4.75 13.8948 4.93753 14.7745 5.30187C15.6541 5.66622 16.4533 6.20025 17.1265 6.87348C17.7997 7.5467 18.3338 8.34593 18.6981 9.22554C19.0625 10.1052 19.25 11.0479 19.25 12C19.25 13.9228 18.4862 15.7669 17.1265 17.1265C15.7669 18.4862 13.9228 19.25 12 19.25C10.0772 19.25 8.23311 18.4862 6.87348 17.1265C5.51384 15.7669 4.75 13.9228 4.75 12Z" fill="black"/>
</svg>