<svg xmlns="http://www.w3.org/2000/svg" width="177" height="18" viewBox="0 0 177 18" fill="none">
  <path d="M7.8 17.376C6.312 17.376 4.976 17.088 3.792 16.512C2.624 15.92 1.696 15 1.008 13.752C0.336 12.488 0 10.84 0 8.808V8.328C0 6.872 0.2 5.616 0.6 4.56C1.016 3.504 1.576 2.64 2.28 1.968C3 1.296 3.824 0.799999 4.752 0.48C5.68 0.16 6.656 0 7.68 0C8.64 0 9.512 0.12 10.296 0.36C11.096 0.584 11.8 0.927999 12.408 1.392C13.016 1.84 13.52 2.416 13.92 3.12C14.32 3.808 14.6 4.616 14.76 5.544H11.016C10.792 4.872 10.504 4.36 10.152 4.008C9.8 3.64 9.408 3.392 8.976 3.264C8.56 3.12 8.128 3.048 7.68 3.048C6.976 3.048 6.32 3.216 5.712 3.552C5.12 3.888 4.64 4.44 4.272 5.208C3.92 5.976 3.744 7.016 3.744 8.328V8.808C3.744 9.848 3.856 10.72 4.08 11.424C4.304 12.128 4.608 12.696 4.992 13.128C5.392 13.544 5.832 13.848 6.312 14.04C6.792 14.232 7.288 14.328 7.8 14.328C8.488 14.328 9.112 14.208 9.672 13.968C10.232 13.728 10.688 13.352 11.04 12.84C11.408 12.312 11.624 11.64 11.688 10.824H8.28V8.328H15.12V9.288C15.12 10.68 14.944 11.888 14.592 12.912C14.256 13.92 13.76 14.76 13.104 15.432C12.464 16.088 11.696 16.576 10.8 16.896C9.904 17.216 8.904 17.376 7.8 17.376Z" fill="white"/>
  <path d="M18.5912 17.088V0.287999H25.3832C26.7912 0.287999 27.9592 0.511999 28.8872 0.959999C29.8312 1.408 30.5432 2.04 31.0232 2.856C31.5032 3.656 31.7432 4.6 31.7432 5.688C31.7432 6.84 31.4472 7.848 30.8552 8.712C30.2632 9.56 29.3592 10.176 28.1432 10.56L32.2232 17.088H28.0712L24.5432 10.944H22.1672V17.088H18.5912ZM22.1672 8.112H24.6872C26.0152 8.112 26.9272 7.912 27.4232 7.512C27.9192 7.096 28.1672 6.488 28.1672 5.688C28.1672 4.888 27.9192 4.288 27.4232 3.888C26.9272 3.472 26.0152 3.264 24.6872 3.264H22.1672V8.112Z" fill="white"/>
  <path d="M34.0547 17.088L40.2947 0.287999H43.8707L50.1347 17.088H46.3427L45.0467 13.656H38.8307L37.5587 17.088H34.0547ZM39.9347 10.68H43.9667L41.9507 4.848L39.9347 10.68Z" fill="white"/>
  <path d="M52.7856 17.088V0.287999H56.1696L63.5856 11.088V0.287999H67.1376V17.088H63.7536L56.3376 6.288V17.088H52.7856Z" fill="white"/>
  <path d="M71.4999 17.088V0.287999H77.3319C79.0279 0.287999 80.4759 0.591999 81.6759 1.2C82.8759 1.808 83.7879 2.712 84.4119 3.912C85.0519 5.096 85.3719 6.568 85.3719 8.328V8.808C85.3719 10.6 85.0439 12.112 84.3879 13.344C83.7319 14.576 82.7799 15.512 81.5319 16.152C80.2999 16.776 78.8199 17.088 77.0919 17.088H71.4999ZM75.0759 14.112H76.8519C77.7319 14.112 78.5319 13.944 79.2519 13.608C79.9719 13.272 80.5479 12.72 80.9799 11.952C81.4279 11.168 81.6519 10.12 81.6519 8.808V8.328C81.6519 7.08 81.4519 6.088 81.0519 5.352C80.6519 4.6 80.0999 4.064 79.3959 3.744C78.7079 3.424 77.9399 3.264 77.0919 3.264H75.0759V14.112Z" fill="white"/>
  <path d="M101.475 17.376C99.987 17.376 98.747 17.168 97.755 16.752C96.763 16.336 96.003 15.76 95.475 15.024C94.963 14.272 94.683 13.4 94.635 12.408H98.235C98.363 13.032 98.651 13.512 99.099 13.848C99.563 14.184 100.355 14.352 101.475 14.352C102.627 14.352 103.451 14.2 103.947 13.896C104.459 13.576 104.715 13.128 104.715 12.552C104.715 12.072 104.563 11.68 104.259 11.376C103.971 11.072 103.523 10.816 102.915 10.608C102.307 10.384 101.515 10.176 100.539 9.984C99.403 9.76 98.427 9.448 97.611 9.048C96.795 8.648 96.171 8.104 95.739 7.416C95.323 6.728 95.115 5.856 95.115 4.8C95.115 3.824 95.371 2.984 95.883 2.28C96.395 1.56 97.131 0.999999 98.091 0.599999C99.051 0.2 100.179 0 101.475 0C102.883 0 104.035 0.2 104.931 0.599999C105.843 0.983999 106.531 1.528 106.995 2.232C107.475 2.936 107.755 3.768 107.835 4.728H104.259C104.131 4.152 103.867 3.728 103.467 3.456C103.067 3.168 102.403 3.024 101.475 3.024C100.531 3.024 99.835 3.176 99.387 3.48C98.939 3.784 98.715 4.192 98.715 4.704C98.715 5.328 99.019 5.816 99.627 6.168C100.251 6.52 101.227 6.824 102.555 7.08C103.467 7.256 104.275 7.472 104.979 7.728C105.699 7.984 106.307 8.32 106.803 8.736C107.299 9.136 107.675 9.624 107.931 10.2C108.187 10.776 108.315 11.472 108.315 12.288C108.315 13.312 108.043 14.208 107.499 14.976C106.971 15.744 106.195 16.336 105.171 16.752C104.163 17.168 102.931 17.376 101.475 17.376Z" fill="white"/>
  <path d="M115.618 17.088V3.264H110.218V0.287999H124.594V3.264H119.194V17.088H115.618Z" fill="white"/>
  <path d="M134.315 17.376C133.259 17.376 132.259 17.216 131.315 16.896C130.371 16.576 129.523 16.08 128.771 15.408C128.035 14.72 127.451 13.832 127.019 12.744C126.603 11.656 126.395 10.344 126.395 8.808V8.328C126.395 6.856 126.603 5.6 127.019 4.56C127.451 3.504 128.035 2.64 128.771 1.968C129.523 1.296 130.371 0.799999 131.315 0.48C132.259 0.16 133.259 0 134.315 0C135.371 0 136.371 0.16 137.315 0.48C138.259 0.799999 139.099 1.296 139.835 1.968C140.587 2.64 141.171 3.504 141.587 4.56C142.019 5.6 142.235 6.856 142.235 8.328V8.808C142.235 10.344 142.019 11.656 141.587 12.744C141.171 13.832 140.587 14.72 139.835 15.408C139.099 16.08 138.259 16.576 137.315 16.896C136.371 17.216 135.371 17.376 134.315 17.376ZM134.315 14.352C135.051 14.352 135.731 14.184 136.355 13.848C136.995 13.496 137.507 12.92 137.891 12.12C138.291 11.304 138.491 10.2 138.491 8.808V8.328C138.491 7.016 138.291 5.976 137.891 5.208C137.507 4.424 136.995 3.864 136.355 3.528C135.731 3.192 135.051 3.024 134.315 3.024C133.595 3.024 132.915 3.192 132.275 3.528C131.635 3.864 131.115 4.424 130.715 5.208C130.331 5.976 130.139 7.016 130.139 8.328V8.808C130.139 10.2 130.331 11.304 130.715 12.12C131.115 12.92 131.635 13.496 132.275 13.848C132.915 14.184 133.595 14.352 134.315 14.352Z" fill="white"/>
  <path d="M145.83 17.088V0.287999H149.214L156.63 11.088V0.287999H160.182V17.088H156.798L149.382 6.288V17.088H145.83Z" fill="white"/>
  <path d="M164.544 17.088V0.287999H176.256V3.264H168.144V7.008H175.536V9.888H168.144V14.112H176.256V17.088H164.544Z" fill="white"/>
</svg>