<svg xmlns="http://www.w3.org/2000/svg" width="177" height="38" viewBox="0 0 177 38" fill="none">
  <path d="M7.83 17.464C6.342 17.464 5.006 17.176 3.822 16.6C2.654 16.008 1.726 15.088 1.038 13.84C0.366 12.576 0.03 10.928 0.03 8.896V8.416C0.03 6.96 0.23 5.704 0.63 4.648C1.046 3.592 1.606 2.728 2.31 2.056C3.03 1.384 3.854 0.887997 4.782 0.567997C5.71 0.247997 6.686 0.0879974 7.71 0.0879974C8.67 0.0879974 9.542 0.207997 10.326 0.447997C11.126 0.671997 11.83 1.016 12.438 1.48C13.046 1.928 13.55 2.504 13.95 3.208C14.35 3.896 14.63 4.704 14.79 5.632H11.046C10.822 4.96 10.534 4.448 10.182 4.096C9.83 3.728 9.438 3.48 9.006 3.352C8.59 3.208 8.158 3.136 7.71 3.136C7.006 3.136 6.35 3.304 5.742 3.64C5.15 3.976 4.67 4.528 4.302 5.296C3.95 6.064 3.774 7.104 3.774 8.416V8.896C3.774 9.936 3.886 10.808 4.11 11.512C4.334 12.216 4.638 12.784 5.022 13.216C5.422 13.632 5.862 13.936 6.342 14.128C6.822 14.32 7.318 14.416 7.83 14.416C8.518 14.416 9.142 14.296 9.702 14.056C10.262 13.816 10.718 13.44 11.07 12.928C11.438 12.4 11.654 11.728 11.718 10.912H8.31V8.416H15.15V9.376C15.15 10.768 14.974 11.976 14.622 13C14.286 14.008 13.79 14.848 13.134 15.52C12.494 16.176 11.726 16.664 10.83 16.984C9.934 17.304 8.934 17.464 7.83 17.464Z" fill="black"/>
  <path d="M18.6212 17.176V0.375997H25.4132C26.8212 0.375997 27.9892 0.599997 28.9172 1.048C29.8612 1.496 30.5732 2.128 31.0532 2.944C31.5332 3.744 31.7732 4.688 31.7732 5.776C31.7732 6.928 31.4772 7.936 30.8852 8.8C30.2932 9.648 29.3892 10.264 28.1732 10.648L32.2532 17.176H28.1012L24.5732 11.032H22.1972V17.176H18.6212ZM22.1972 8.2H24.7172C26.0452 8.2 26.9572 8 27.4532 7.6C27.9492 7.184 28.1972 6.576 28.1972 5.776C28.1972 4.976 27.9492 4.376 27.4532 3.976C26.9572 3.56 26.0452 3.352 24.7172 3.352H22.1972V8.2Z" fill="black"/>
  <path d="M34.0847 17.176L40.3247 0.375997H43.9007L50.1647 17.176H46.3727L45.0767 13.744H38.8607L37.5887 17.176H34.0847ZM39.9647 10.768H43.9967L41.9807 4.936L39.9647 10.768Z" fill="black"/>
  <path d="M52.8156 17.176V0.375997H56.1996L63.6156 11.176V0.375997H67.1676V17.176H63.7836L56.3676 6.376V17.176H52.8156Z" fill="black"/>
  <path d="M71.5299 17.176V0.375997H77.3619C79.0579 0.375997 80.5059 0.679996 81.7059 1.288C82.9059 1.896 83.8179 2.8 84.4419 4C85.0819 5.184 85.4019 6.656 85.4019 8.416V8.896C85.4019 10.688 85.0739 12.2 84.4179 13.432C83.7619 14.664 82.8099 15.6 81.5619 16.24C80.3299 16.864 78.8499 17.176 77.1219 17.176H71.5299ZM75.1059 14.2H76.8819C77.7619 14.2 78.5619 14.032 79.2819 13.696C80.0019 13.36 80.5779 12.808 81.0099 12.04C81.4579 11.256 81.6819 10.208 81.6819 8.896V8.416C81.6819 7.168 81.4819 6.176 81.0819 5.44C80.6819 4.688 80.1299 4.152 79.4259 3.832C78.7379 3.512 77.9699 3.352 77.1219 3.352H75.1059V14.2Z" fill="black"/>
  <path d="M101.505 17.464C100.017 17.464 98.777 17.256 97.785 16.84C96.793 16.424 96.033 15.848 95.505 15.112C94.993 14.36 94.713 13.488 94.665 12.496H98.265C98.393 13.12 98.681 13.6 99.129 13.936C99.593 14.272 100.385 14.44 101.505 14.44C102.657 14.44 103.481 14.288 103.977 13.984C104.489 13.664 104.745 13.216 104.745 12.64C104.745 12.16 104.593 11.768 104.289 11.464C104.001 11.16 103.553 10.904 102.945 10.696C102.337 10.472 101.545 10.264 100.569 10.072C99.433 9.848 98.457 9.536 97.641 9.136C96.825 8.736 96.201 8.192 95.769 7.504C95.353 6.816 95.145 5.944 95.145 4.888C95.145 3.912 95.401 3.072 95.913 2.368C96.425 1.648 97.161 1.088 98.121 0.687997C99.081 0.287997 100.209 0.0879974 101.505 0.0879974C102.913 0.0879974 104.065 0.287997 104.961 0.687997C105.873 1.072 106.561 1.616 107.025 2.32C107.505 3.024 107.785 3.856 107.865 4.816H104.289C104.161 4.24 103.897 3.816 103.497 3.544C103.097 3.256 102.433 3.112 101.505 3.112C100.561 3.112 99.865 3.264 99.417 3.568C98.969 3.872 98.745 4.28 98.745 4.792C98.745 5.416 99.049 5.904 99.657 6.256C100.281 6.608 101.257 6.912 102.585 7.168C103.497 7.344 104.305 7.56 105.009 7.816C105.729 8.072 106.337 8.408 106.833 8.824C107.329 9.224 107.705 9.712 107.961 10.288C108.217 10.864 108.345 11.56 108.345 12.376C108.345 13.4 108.073 14.296 107.529 15.064C107.001 15.832 106.225 16.424 105.201 16.84C104.193 17.256 102.961 17.464 101.505 17.464Z" fill="black"/>
  <path d="M115.648 17.176V3.352H110.248V0.375997H124.624V3.352H119.224V17.176H115.648Z" fill="black"/>
  <path d="M134.345 17.464C133.289 17.464 132.289 17.304 131.345 16.984C130.401 16.664 129.553 16.168 128.801 15.496C128.065 14.808 127.481 13.92 127.049 12.832C126.633 11.744 126.425 10.432 126.425 8.896V8.416C126.425 6.944 126.633 5.688 127.049 4.648C127.481 3.592 128.065 2.728 128.801 2.056C129.553 1.384 130.401 0.887997 131.345 0.567997C132.289 0.247997 133.289 0.0879974 134.345 0.0879974C135.401 0.0879974 136.401 0.247997 137.345 0.567997C138.289 0.887997 139.129 1.384 139.865 2.056C140.617 2.728 141.201 3.592 141.617 4.648C142.049 5.688 142.265 6.944 142.265 8.416V8.896C142.265 10.432 142.049 11.744 141.617 12.832C141.201 13.92 140.617 14.808 139.865 15.496C139.129 16.168 138.289 16.664 137.345 16.984C136.401 17.304 135.401 17.464 134.345 17.464ZM134.345 14.44C135.081 14.44 135.761 14.272 136.385 13.936C137.025 13.584 137.537 13.008 137.921 12.208C138.321 11.392 138.521 10.288 138.521 8.896V8.416C138.521 7.104 138.321 6.064 137.921 5.296C137.537 4.512 137.025 3.952 136.385 3.616C135.761 3.28 135.081 3.112 134.345 3.112C133.625 3.112 132.945 3.28 132.305 3.616C131.665 3.952 131.145 4.512 130.745 5.296C130.361 6.064 130.169 7.104 130.169 8.416V8.896C130.169 10.288 130.361 11.392 130.745 12.208C131.145 13.008 131.665 13.584 132.305 13.936C132.945 14.272 133.625 14.44 134.345 14.44Z" fill="black"/>
  <path d="M145.86 17.176V0.375997H149.244L156.66 11.176V0.375997H160.212V17.176H156.828L149.412 6.376V17.176H145.86Z" fill="black"/>
  <path d="M164.574 17.176V0.375997H176.286V3.352H168.174V7.096H175.566V9.976H168.174V14.2H176.286V17.176H164.574Z" fill="black"/>
  <path d="M0 35.176V26.076H7.41V35.176H5.85V27.428H1.56V35.176H0Z" fill="#888888"/>
  <path d="M9.49 37.776V28.286H10.816V29.443C11.024 29.0443 11.3317 28.728 11.739 28.494C12.155 28.26 12.623 28.143 13.143 28.143C14.0443 28.143 14.755 28.4247 15.275 28.988C15.795 29.5513 16.055 30.4007 16.055 31.536V31.796C16.055 32.576 15.9337 33.2303 15.691 33.759C15.4483 34.279 15.1103 34.669 14.677 34.929C14.2437 35.189 13.7323 35.319 13.143 35.319C12.649 35.319 12.1983 35.2107 11.791 34.994C11.3837 34.7773 11.0933 34.474 10.92 34.084V37.776H9.49ZM12.805 34.071C13.3423 34.071 13.7757 33.8847 14.105 33.512C14.4343 33.1393 14.599 32.5673 14.599 31.796V31.536C14.599 30.808 14.4387 30.2707 14.118 29.924C13.7973 29.5687 13.3597 29.391 12.805 29.391C12.4843 29.391 12.1767 29.4603 11.882 29.599C11.596 29.7377 11.362 29.9413 11.18 30.21C11.0067 30.4787 10.92 30.8123 10.92 31.211V32.121C10.92 32.5543 11.0067 32.9183 11.18 33.213C11.362 33.499 11.596 33.7157 11.882 33.863C12.168 34.0017 12.4757 34.071 12.805 34.071Z" fill="#888888"/>
  <path d="M20.478 35.319C19.8454 35.319 19.2734 35.189 18.762 34.929C18.2507 34.6603 17.8434 34.266 17.54 33.746C17.2454 33.2173 17.098 32.5673 17.098 31.796V31.536C17.098 30.808 17.2454 30.1927 17.54 29.69C17.8434 29.1787 18.2507 28.793 18.762 28.533C19.2734 28.273 19.8454 28.143 20.478 28.143C21.1194 28.143 21.6914 28.273 22.194 28.533C22.7054 28.793 23.1084 29.1787 23.403 29.69C23.7064 30.1927 23.858 30.808 23.858 31.536V31.796C23.858 32.5673 23.7064 33.2173 23.403 33.746C23.1084 34.266 22.7054 34.6603 22.194 34.929C21.6914 35.189 21.1194 35.319 20.478 35.319ZM20.478 34.071C20.8074 34.071 21.1194 33.993 21.414 33.837C21.7087 33.681 21.947 33.4383 22.129 33.109C22.311 32.771 22.402 32.3333 22.402 31.796V31.536C22.402 31.042 22.311 30.639 22.129 30.327C21.947 30.0063 21.7087 29.7723 21.414 29.625C21.1194 29.469 20.8074 29.391 20.478 29.391C20.1487 29.391 19.8367 29.469 19.542 29.625C19.2474 29.7723 19.009 30.0063 18.827 30.327C18.645 30.639 18.554 31.042 18.554 31.536V31.796C18.554 32.3333 18.645 32.771 18.827 33.109C19.009 33.4383 19.2474 33.681 19.542 33.837C19.8367 33.993 20.1487 34.071 20.478 34.071Z" fill="#888888"/>
  <path d="M25.283 35.176V28.286H26.713V33.161L30.028 28.286H31.393V35.176H29.963V30.301L26.648 35.176H25.283Z" fill="#888888"/>
  <path d="M35.7525 35.319C35.1285 35.319 34.5999 35.2323 34.1665 35.059C33.7332 34.8857 33.3995 34.6343 33.1655 34.305C32.9315 33.967 32.7972 33.564 32.7625 33.096H34.2185C34.2532 33.304 34.3225 33.4817 34.4265 33.629C34.5392 33.7763 34.6995 33.889 34.9075 33.967C35.1242 34.0363 35.3972 34.071 35.7265 34.071C36.3159 34.071 36.7232 33.9757 36.9485 33.785C37.1739 33.5943 37.2865 33.356 37.2865 33.07C37.2865 32.81 37.1869 32.6063 36.9875 32.459C36.7969 32.303 36.4589 32.225 35.9735 32.225H34.8425V31.107H35.8825C36.2812 31.107 36.5715 31.0247 36.7535 30.86C36.9355 30.6953 37.0265 30.4873 37.0265 30.236C37.0265 30.0107 36.9312 29.8157 36.7405 29.651C36.5499 29.4777 36.2205 29.391 35.7525 29.391C35.2499 29.391 34.8989 29.4733 34.6995 29.638C34.5089 29.8027 34.3919 30.0237 34.3485 30.301H32.8925C32.9272 29.859 33.0572 29.4777 33.2825 29.157C33.5079 28.8363 33.8285 28.5893 34.2445 28.416C34.6605 28.234 35.1632 28.143 35.7525 28.143C36.6972 28.143 37.3862 28.3293 37.8195 28.702C38.2615 29.0747 38.4825 29.56 38.4825 30.158C38.4825 30.4873 38.4002 30.7777 38.2355 31.029C38.0795 31.2803 37.8195 31.471 37.4555 31.601C37.9409 31.7223 38.2745 31.926 38.4565 32.212C38.6472 32.498 38.7425 32.8273 38.7425 33.2C38.7425 33.5987 38.6342 33.9583 38.4175 34.279C38.2009 34.5997 37.8715 34.8553 37.4295 35.046C36.9875 35.228 36.4285 35.319 35.7525 35.319Z" fill="#888888"/>
  <path d="M40.1746 35.176V28.286H43.4246C44.0052 28.286 44.4732 28.3683 44.8286 28.533C45.1926 28.689 45.4612 28.91 45.6346 29.196C45.8079 29.4733 45.8946 29.794 45.8946 30.158C45.8946 30.4613 45.8036 30.756 45.6216 31.042C45.4396 31.3193 45.1839 31.5057 44.8546 31.601C45.2792 31.705 45.5999 31.9043 45.8166 32.199C46.0419 32.485 46.1546 32.823 46.1546 33.213C46.1546 33.811 45.9552 34.2877 45.5566 34.643C45.1579 34.9983 44.5339 35.176 43.6846 35.176H40.1746ZM41.6046 33.954H43.4896C43.9576 33.954 44.2782 33.8803 44.4516 33.733C44.6336 33.577 44.7246 33.3603 44.7246 33.083C44.7246 32.8057 44.6336 32.5977 44.4516 32.459C44.2782 32.3117 43.9576 32.238 43.4896 32.238H41.6046V33.954ZM41.6046 31.12H43.2946C43.7279 31.12 44.0312 31.0507 44.2046 30.912C44.3779 30.7647 44.4646 30.5653 44.4646 30.314C44.4646 30.0627 44.3779 29.8677 44.2046 29.729C44.0312 29.5817 43.7279 29.508 43.2946 29.508H41.6046V31.12Z" fill="#888888"/>
  <path d="M50.5786 35.319C49.946 35.319 49.374 35.189 48.8626 34.929C48.3513 34.6603 47.944 34.266 47.6406 33.746C47.346 33.2173 47.1986 32.5673 47.1986 31.796V31.536C47.1986 30.808 47.346 30.1927 47.6406 29.69C47.944 29.1787 48.3513 28.793 48.8626 28.533C49.374 28.273 49.946 28.143 50.5786 28.143C51.22 28.143 51.792 28.273 52.2946 28.533C52.806 28.793 53.209 29.1787 53.5036 29.69C53.807 30.1927 53.9586 30.808 53.9586 31.536V31.796C53.9586 32.5673 53.807 33.2173 53.5036 33.746C53.209 34.266 52.806 34.6603 52.2946 34.929C51.792 35.189 51.22 35.319 50.5786 35.319ZM50.5786 34.071C50.908 34.071 51.22 33.993 51.5146 33.837C51.8093 33.681 52.0476 33.4383 52.2296 33.109C52.4116 32.771 52.5026 32.3333 52.5026 31.796V31.536C52.5026 31.042 52.4116 30.639 52.2296 30.327C52.0476 30.0063 51.8093 29.7723 51.5146 29.625C51.22 29.469 50.908 29.391 50.5786 29.391C50.2493 29.391 49.9373 29.469 49.6426 29.625C49.348 29.7723 49.1096 30.0063 48.9276 30.327C48.7456 30.639 48.6546 31.042 48.6546 31.536V31.796C48.6546 32.3333 48.7456 32.771 48.9276 33.109C49.1096 33.4383 49.348 33.681 49.6426 33.837C49.9373 33.993 50.2493 34.071 50.5786 34.071Z" fill="#888888"/>
  <path d="M54.6701 36.801V33.954H55.4501C55.5714 33.772 55.6754 33.4903 55.7621 33.109C55.8487 32.719 55.9137 32.2727 55.9571 31.77C56.0091 31.2673 56.0351 30.756 56.0351 30.236V28.286H61.1701V33.954H62.0801V36.801H60.7541V35.176H55.9961V36.801H54.6701ZM56.9061 33.954H59.7401V29.508H57.4131V30.496C57.4131 31.1633 57.3741 31.8047 57.2961 32.42C57.2181 33.0267 57.0881 33.538 56.9061 33.954Z" fill="#888888"/>
  <path d="M66.1146 35.319C65.4993 35.319 64.9446 35.189 64.4506 34.929C63.9566 34.669 63.5666 34.279 63.2806 33.759C63.0033 33.239 62.8646 32.5847 62.8646 31.796V31.536C62.8646 30.7907 63.012 30.1667 63.3066 29.664C63.61 29.1613 64.0086 28.7843 64.5026 28.533C64.9967 28.273 65.534 28.143 66.1146 28.143C66.7213 28.143 67.2327 28.247 67.6487 28.455C68.0733 28.663 68.4026 28.9447 68.6367 29.3C68.8793 29.6553 69.0353 30.054 69.1047 30.496H67.6487C67.562 30.1753 67.406 29.911 67.1806 29.703C66.9553 29.495 66.6 29.391 66.1146 29.391C65.794 29.391 65.495 29.4647 65.2177 29.612C64.949 29.7593 64.7323 29.9933 64.5676 30.314C64.403 30.626 64.3206 31.0333 64.3206 31.536V31.796C64.3206 32.342 64.403 32.784 64.5676 33.122C64.7323 33.4513 64.949 33.694 65.2177 33.85C65.495 33.9973 65.794 34.071 66.1146 34.071C66.522 34.071 66.8513 33.98 67.1026 33.798C67.354 33.616 67.536 33.3387 67.6487 32.966H69.1047C69.018 33.4513 68.836 33.8717 68.5586 34.227C68.29 34.5737 67.9476 34.8423 67.5316 35.033C67.1156 35.2237 66.6433 35.319 66.1146 35.319Z" fill="#888888"/>
  <path d="M72.0906 35.176V29.508H69.8156V28.286H75.7956V29.508H73.5206V35.176H72.0906Z" fill="#888888"/>
  <path d="M76.9656 35.176V28.286H80.2156C80.7962 28.286 81.2643 28.3683 81.6196 28.533C81.9836 28.689 82.2523 28.91 82.4256 29.196C82.5989 29.4733 82.6856 29.794 82.6856 30.158C82.6856 30.4613 82.5946 30.756 82.4126 31.042C82.2306 31.3193 81.9749 31.5057 81.6456 31.601C82.0703 31.705 82.3909 31.9043 82.6076 32.199C82.8329 32.485 82.9456 32.823 82.9456 33.213C82.9456 33.811 82.7463 34.2877 82.3476 34.643C81.9489 34.9983 81.3249 35.176 80.4756 35.176H76.9656ZM78.3956 33.954H80.2806C80.7486 33.954 81.0693 33.8803 81.2426 33.733C81.4246 33.577 81.5156 33.3603 81.5156 33.083C81.5156 32.8057 81.4246 32.5977 81.2426 32.459C81.0693 32.3117 80.7486 32.238 80.2806 32.238H78.3956V33.954ZM78.3956 31.12H80.0856C80.5189 31.12 80.8223 31.0507 80.9956 30.912C81.1689 30.7647 81.2556 30.5653 81.2556 30.314C81.2556 30.0627 81.1689 29.8677 80.9956 29.729C80.8223 29.5817 80.5189 29.508 80.0856 29.508H78.3956V31.12Z" fill="#888888"/>
  <path d="M87.3697 35.319C86.737 35.319 86.165 35.189 85.6536 34.929C85.1423 34.6603 84.735 34.266 84.4316 33.746C84.137 33.2173 83.9896 32.5673 83.9896 31.796V31.536C83.9896 30.808 84.137 30.1927 84.4316 29.69C84.735 29.1787 85.1423 28.793 85.6536 28.533C86.165 28.273 86.737 28.143 87.3697 28.143C88.011 28.143 88.583 28.273 89.0856 28.533C89.597 28.793 90 29.1787 90.2946 29.69C90.598 30.1927 90.7496 30.808 90.7496 31.536V31.796C90.7496 32.5673 90.598 33.2173 90.2946 33.746C90 34.266 89.597 34.6603 89.0856 34.929C88.583 35.189 88.011 35.319 87.3697 35.319ZM87.3697 34.071C87.699 34.071 88.011 33.993 88.3056 33.837C88.6003 33.681 88.8386 33.4383 89.0206 33.109C89.2026 32.771 89.2936 32.3333 89.2936 31.796V31.536C89.2936 31.042 89.2026 30.639 89.0206 30.327C88.8386 30.0063 88.6003 29.7723 88.3056 29.625C88.011 29.469 87.699 29.391 87.3697 29.391C87.0403 29.391 86.7283 29.469 86.4336 29.625C86.139 29.7723 85.9007 30.0063 85.7187 30.327C85.5367 30.639 85.4456 31.042 85.4456 31.536V31.796C85.4456 32.3333 85.5367 32.771 85.7187 33.109C85.9007 33.4383 86.139 33.681 86.4336 33.837C86.7283 33.993 87.0403 34.071 87.3697 34.071Z" fill="#888888"/>
  <path d="M95.4246 35.176V28.286H101.405V35.176H99.9746V29.508H96.8546V35.176H95.4246Z" fill="#888888"/>
  <path d="M105.234 35.319C104.74 35.319 104.316 35.228 103.96 35.046C103.614 34.8553 103.349 34.5953 103.167 34.266C102.985 33.9367 102.894 33.5683 102.894 33.161C102.894 32.4763 103.098 31.9693 103.505 31.64C103.913 31.302 104.511 31.133 105.299 31.133H107.444V30.756C107.444 30.236 107.327 29.8807 107.093 29.69C106.868 29.4907 106.508 29.391 106.014 29.391C105.572 29.391 105.247 29.4603 105.039 29.599C104.831 29.7377 104.71 29.9283 104.675 30.171H103.284C103.31 29.7723 103.436 29.4213 103.661 29.118C103.887 28.8147 104.203 28.5763 104.61 28.403C105.026 28.2297 105.516 28.143 106.079 28.143C106.643 28.143 107.132 28.2297 107.548 28.403C107.973 28.5763 108.298 28.8493 108.523 29.222C108.757 29.586 108.874 30.0713 108.874 30.678V33.421C108.874 33.785 108.879 34.1057 108.887 34.383C108.896 34.6517 108.918 34.916 108.952 35.176H107.652C107.626 34.9767 107.605 34.8077 107.587 34.669C107.579 34.5303 107.574 34.357 107.574 34.149C107.41 34.4697 107.124 34.747 106.716 34.981C106.318 35.2063 105.824 35.319 105.234 35.319ZM105.624 34.071C105.954 34.071 106.253 34.0147 106.521 33.902C106.799 33.7893 107.02 33.6203 107.184 33.395C107.358 33.1697 107.444 32.8967 107.444 32.576V32.199H105.559C105.195 32.199 104.901 32.277 104.675 32.433C104.459 32.589 104.35 32.8187 104.35 33.122C104.35 33.408 104.45 33.6377 104.649 33.811C104.857 33.9843 105.182 34.071 105.624 34.071Z" fill="#888888"/>
  <path d="M110.634 35.176V28.286H112.246L114.443 32.316L116.64 28.286H118.174V35.176H116.744V30.431L114.924 33.746H113.884L112.064 30.431V35.176H110.634Z" fill="#888888"/>
  <path d="M119.535 35.176L121.329 32.563C120.809 32.407 120.423 32.1513 120.172 31.796C119.921 31.4407 119.795 31.0117 119.795 30.509C119.795 30.0583 119.895 29.6683 120.094 29.339C120.293 29.001 120.597 28.741 121.004 28.559C121.411 28.377 121.918 28.286 122.525 28.286H125.645V35.176H124.215V32.732H122.733L121.199 35.176H119.535ZM121.251 30.509C121.251 30.873 121.359 31.133 121.576 31.289C121.793 31.4363 122.087 31.51 122.46 31.51H124.215V29.508H122.46C122.087 29.508 121.793 29.586 121.576 29.742C121.359 29.8893 121.251 30.145 121.251 30.509Z" fill="#888888"/>
  <path d="M129.093 35.176V29.508H126.818V28.286H132.798V29.508H130.523V35.176H129.093Z" fill="#888888"/>
  <path d="M133.968 35.176V28.286H135.398V31.055H138.648V28.286H140.078V35.176H138.648V32.277H135.398V35.176H133.968Z" fill="#888888"/>
  <path d="M141.902 35.176V28.286H143.332V33.161L146.647 28.286H148.012V35.176H146.582V30.301L143.267 35.176H141.902Z" fill="#888888"/>
  <path d="M149.837 35.176V28.286H151.267V31.081H152.047L154.465 28.286H156.077L153.152 31.575L156.207 35.176H154.465L152.047 32.251H151.267V35.176H149.837Z" fill="#888888"/>
  <path d="M160.114 35.319C159.481 35.319 158.909 35.189 158.398 34.929C157.886 34.6603 157.479 34.266 157.176 33.746C156.881 33.2173 156.734 32.5673 156.734 31.796V31.536C156.734 30.808 156.881 30.1927 157.176 29.69C157.479 29.1787 157.886 28.793 158.398 28.533C158.909 28.273 159.481 28.143 160.114 28.143C160.755 28.143 161.327 28.273 161.83 28.533C162.341 28.793 162.744 29.1787 163.039 29.69C163.342 30.1927 163.494 30.808 163.494 31.536V31.796C163.494 32.5673 163.342 33.2173 163.039 33.746C162.744 34.266 162.341 34.6603 161.83 34.929C161.327 35.189 160.755 35.319 160.114 35.319ZM160.114 34.071C160.443 34.071 160.755 33.993 161.05 33.837C161.344 33.681 161.583 33.4383 161.765 33.109C161.947 32.771 162.038 32.3333 162.038 31.796V31.536C162.038 31.042 161.947 30.639 161.765 30.327C161.583 30.0063 161.344 29.7723 161.05 29.625C160.755 29.469 160.443 29.391 160.114 29.391C159.784 29.391 159.472 29.469 159.178 29.625C158.883 29.7723 158.645 30.0063 158.463 30.327C158.281 30.639 158.19 31.042 158.19 31.536V31.796C158.19 32.3333 158.281 32.771 158.463 33.109C158.645 33.4383 158.883 33.681 159.178 33.837C159.472 33.993 159.784 34.071 160.114 34.071Z" fill="#888888"/>
  <path d="M164.919 35.176V28.286H168.169C168.749 28.286 169.217 28.3683 169.573 28.533C169.937 28.689 170.205 28.91 170.379 29.196C170.552 29.4733 170.639 29.794 170.639 30.158C170.639 30.4613 170.548 30.756 170.366 31.042C170.184 31.3193 169.928 31.5057 169.599 31.601C170.023 31.705 170.344 31.9043 170.561 32.199C170.786 32.485 170.899 32.823 170.899 33.213C170.899 33.811 170.699 34.2877 170.301 34.643C169.902 34.9983 169.278 35.176 168.429 35.176H164.919ZM166.349 33.954H168.234C168.702 33.954 169.022 33.8803 169.196 33.733C169.378 33.577 169.469 33.3603 169.469 33.083C169.469 32.8057 169.378 32.5977 169.196 32.459C169.022 32.3117 168.702 32.238 168.234 32.238H166.349V33.954ZM166.349 31.12H168.039C168.472 31.12 168.775 31.0507 168.949 30.912C169.122 30.7647 169.209 30.5653 169.209 30.314C169.209 30.0627 169.122 29.8677 168.949 29.729C168.775 29.5817 168.472 29.508 168.039 29.508H166.349V31.12Z" fill="#888888"/>
</svg>