  <svg xmlns="http://www.w3.org/2000/svg" width="20" height="20" viewBox="0 0 20 20"
                                fill="none">
                                <path
                                    d="M9.99996 3.33333C6.31806 3.33333 3.33329 6.3181 3.33329 10C3.33329 13.6819 6.31806 16.6667 9.99996 16.6667C13.6819 16.6667 16.6666 13.6819 16.6666 10C16.6666 6.3181 13.6819 3.33333 9.99996 3.33333ZM1.66663 10C1.66663 5.39763 5.39759 1.66667 9.99996 1.66667C14.6023 1.66667 18.3333 5.39763 18.3333 10C18.3333 14.6024 14.6023 18.3333 9.99996 18.3333C5.39759 18.3333 1.66663 14.6024 1.66663 10Z"
                                    fill="#B0B0B0" />
                                <path
                                    d="M9.99996 11.6667C9.53972 11.6667 9.16663 11.2936 9.16663 10.8333V10C9.16663 9.53976 9.53972 9.16667 9.99996 9.16667C10.4602 9.16667 10.8333 9.53976 10.8333 10V10.8333C10.8333 11.2936 10.4602 11.6667 9.99996 11.6667Z"
                                    fill="#B0B0B0" />
                                <path
                                    d="M8.74996 13.75C8.74996 13.0596 9.3096 12.5 9.99996 12.5C10.6903 12.5 11.25 13.0596 11.25 13.75C11.25 14.4404 10.6903 15 9.99996 15C9.3096 15 8.74996 14.4404 8.74996 13.75Z"
                                    fill="#B0B0B0" />
                                <path
                                    d="M10.3249 6.50948C9.52738 6.4715 8.85862 6.917 8.73862 7.637C8.66296 8.09098 8.2336 8.39766 7.77963 8.322C7.32565 8.24634 7.01897 7.81698 7.09463 7.363C7.3913 5.583 9.01421 4.77851 10.4042 4.8447C11.1162 4.8786 11.8479 5.13416 12.4114 5.66065C12.9888 6.20023 13.3333 6.97314 13.3333 7.91667C13.3333 8.99276 12.9099 9.79076 12.181 10.2767C11.5117 10.7229 10.6912 10.8333 9.99996 10.8333C9.53972 10.8333 9.16663 10.4602 9.16663 10C9.16663 9.53976 9.53972 9.16667 9.99996 9.16667C10.5587 9.16667 10.9882 9.06877 11.2565 8.88996C11.465 8.75091 11.6666 8.50725 11.6666 7.91667C11.6666 7.40186 11.4903 7.08103 11.2735 6.87841C11.0426 6.66272 10.7066 6.52765 10.3249 6.50948Z"
                                    fill="#B0B0B0" />
</svg>