<svg xmlns="http://www.w3.org/2000/svg" width="18" height="16" viewBox="0 0 18 16" fill="none">
  <path d="M16.4733 0.693376C14.0987 1.67687 3.91677 5.89437 1.1035 7.04384C-0.78321 7.78011 0.321294 8.47045 0.321294 8.47045C0.321294 8.47045 1.93183 9.02261 3.31251 9.43677C4.69299 9.85093 5.42926 9.39084 5.42926 9.39084L11.9177 5.01914C14.2186 3.45454 13.6664 4.74297 13.1141 5.29532C11.9177 6.49188 9.93895 8.37839 8.28229 9.89706C7.54602 10.5413 7.91406 11.0934 8.23636 11.3696C9.43273 12.382 12.7001 14.4529 12.884 14.5909C13.8561 15.2791 15.7683 16.2697 16.0592 14.1767L17.2096 6.95197C17.5778 4.51311 17.9459 2.25817 17.9918 1.61396C18.13 0.0491629 16.4733 0.693376 16.4733 0.693376Z" fill="#888888"/>
</svg>