<svg xmlns="http://www.w3.org/2000/svg" width="20" height="18" viewBox="0 0 20 18" fill="none">
  <path d="M18.3037 0.881793C15.6653 1.97457 4.35197 6.66067 1.22611 7.93786C-0.870234 8.75594 0.356993 9.52299 0.356993 9.52299C0.356993 9.52299 2.14648 10.1365 3.68056 10.5967C5.21443 11.0569 6.03251 10.5456 6.03251 10.5456L13.2419 5.6882C15.7984 3.94975 15.1849 5.38134 14.5712 5.99506C13.2419 7.32457 11.0433 9.4207 9.20255 11.1081C8.38447 11.8239 8.7934 12.4374 9.15151 12.7443C10.4808 13.8692 14.1112 16.1701 14.3156 16.3234C15.3957 17.0881 17.5204 18.1888 17.8435 15.8633L19.1218 7.83579C19.5309 5.12594 19.9399 2.62045 19.9909 1.90466C20.1444 0.166 18.3037 0.881793 18.3037 0.881793Z" fill="#1C8ADB"/>
</svg>